<svg xmlns="http://www.w3.org/2000/svg" viewBox="0 0 1200 800" width="1200" height="800" font-family="sans-serif">
<rect x="0" y="0" width="1200" height="800" rx="18" fill="#f1f5f9"/>

<!-- Sidebar -->
<rect x="0" y="0" width="220" height="800" fill="#0f172a"/>
<text x="24" y="44" font-size="17" font-weight="800" fill="#ffffff">Q-TRUST</text>
<text x="24" y="62" font-size="9" fill="#94a3b8">Post-Quantum Readiness</text>
<g font-size="12" fill="#cbd5e1">
  <rect x="12" y="88" width="196" height="36" rx="8" fill="#0a675f"/><text x="30" y="111">📊  Control Center</text>
  <text x="30" y="160">🔍  Inventory</text>
  <text x="30" y="200">🧭  Migration Plan</text>
  <text x="30" y="240">📜  Evidence &amp; Audit</text>
  <text x="30" y="280">🛡️  Compliance</text>
  <text x="30" y="320">🏷️  Vendor Portal</text>
  <text x="30" y="360">⚙️  Settings</text>
</g>
<rect x="12" y="700" width="196" height="70" rx="10" fill="#1e293b"/>
<text x="28" y="722" font-size="11" font-weight="600" fill="#e2e8f0">Acme Bank N.A.</text>
<text x="28" y="740" font-size="9" fill="#94a3b8">Last scan: 2 min ago · live</text>
<circle cx="186" cy="724" r="6" fill="#22c55e"/>

<!-- Header -->
<rect x="220" y="0" width="980" height="76" fill="#ffffff"/>
<text x="248" y="34" font-size="20" font-weight="800" fill="#0f172a">Quantum Security Control Center</text>
<text x="248" y="54" font-size="11" fill="#64748b">Acme Bank · 12,847 crypto assets · 6 environments</text>
<rect x="1010" y="20" width="120" height="36" rx="8" fill="#0a675f"/><text x="1070" y="43" text-anchor="middle" font-size="12" font-weight="700" fill="#ffffff">+ New Scan</text>

<!-- Readiness hero -->
<rect x="248" y="96" width="452" height="190" rx="14" fill="#ffffff" stroke="#e2e8f0"/>
<circle cx="430" cy="191" r="62" fill="none" stroke="#e2e8f0" stroke-width="14"/>
<circle cx="430" cy="191" r="62" fill="none" stroke="#0a675f" stroke-width="14" stroke-dasharray="272 392" stroke-linecap="round"/>
<text x="430" y="185" text-anchor="middle" font-size="30" font-weight="800" fill="#0f172a">41</text>
<text x="430" y="207" text-anchor="middle" font-size="11" fill="#64748b">/ 100</text>
<text x="430" y="236" text-anchor="middle" font-size="12" font-weight="700" fill="#dc2626">⚠ HIGH RISK</text>
<text x="430" y="254" text-anchor="middle" font-size="10" fill="#64748b">Quantum Readiness Score</text>
<rect x="530" y="116" width="150" height="34" rx="8" fill="#fee2e2"/><text x="605" y="138" text-anchor="middle" font-size="12" font-weight="700" fill="#dc2626">HNDL: HIGH</text>
<text x="530" y="172" font-size="11" font-weight="600" fill="#334155">Next audit deadline</text>
<text x="530" y="190" font-size="13" font-weight="700" fill="#0f172a">Mar 14, 2027 · 198 days</text>
<text x="530" y="216" font-size="11" font-weight="600" fill="#334155">CNSA 2.0 compliant</text>
<text x="530" y="234" font-size="13" font-weight="700" fill="#0f172a">23 / 47 systems</text>

<!-- KPI cards -->
<g font-size="10">
  <rect x="724" y="96" width="228" height="88" rx="12" fill="#ffffff" stroke="#e2e8f0"/><text x="742" y="120" fill="#64748b">Critical crypto assets</text><text x="742" y="152" font-size="24" font-weight="800" fill="#0f172a">142</text><text x="742" y="172" font-size="10" fill="#dc2626">▲ 12 this quarter</text>
  <rect x="964" y="96" width="228" height="88" rx="12" fill="#ffffff" stroke="#e2e8f0"/><text x="982" y="120" fill="#64748b">High-risk assets</text><text x="982" y="152" font-size="24" font-weight="800" fill="#0f172a">389</text><text x="982" y="172" font-size="10" fill="#f59e0b">RSA-2048 · SHA-1 · DSA</text>
  <rect x="724" y="198" width="228" height="88" rx="12" fill="#ffffff" stroke="#e2e8f0"/><text x="742" y="222" fill="#64748b">PQC-ready</text><text x="742" y="254" font-size="24" font-weight="800" fill="#0a675f">21%</text><text x="742" y="274" font-size="10" fill="#64748b">+4.2% since last quarter</text>
  <rect x="964" y="198" width="228" height="88" rx="12" fill="#ffffff" stroke="#e2e8f0"/><text x="982" y="222" fill="#64748b">Evidence freshness</text><text x="982" y="254" font-size="24" font-weight="800" fill="#0a675f">94%</text><text x="982" y="274" font-size="10" fill="#16a34a">92% anchored on Base ✓</text>
</g>

<!-- Top systems to migrate -->
<rect x="248" y="306" width="520" height="360" rx="14" fill="#ffffff" stroke="#e2e8f0"/>
<text x="268" y="334" font-size="14" font-weight="800" fill="#0f172a">Top systems to migrate — ML-ranked</text>
<text x="268" y="352" font-size="10" fill="#64748b">GNN τ 0.976 · explainable · wave assignment</text>
<g font-size="11">
  <rect x="268" y="368" width="480" height="44" rx="8" fill="#fff7ed" stroke="#fdba74"/><text x="282" y="386" font-weight="700" fill="#7c2d12">1 · Payment Gateway</text><rect x="420" y="374" width="60" height="18" rx="9" fill="#dc2626"/><text x="450" y="387" text-anchor="middle" font-size="9" font-weight="700" fill="#ffffff">CRITICAL</text><text x="282" y="404" font-size="9" fill="#9a3412">RSA-2048 · 14 deps · Wave 1 · cert exp 45d</text>
  <rect x="268" y="420" width="480" height="44" rx="8" fill="#fff7ed" stroke="#fdba74"/><text x="282" y="438" font-weight="700" fill="#7c2d12">2 · Core Banking API</text><rect x="420" y="426" width="60" height="18" rx="9" fill="#dc2626"/><text x="450" y="439" text-anchor="middle" font-size="9" font-weight="700" fill="#ffffff">CRITICAL</text><text x="282" y="456" font-size="9" fill="#9a3412">TLS 1.2 · ECDSA-P256 · Wave 1 · 9 deps</text>
  <rect x="268" y="472" width="480" height="44" rx="8" fill="#fffbeb" stroke="#fcd34d"/><text x="282" y="490" font-weight="700" fill="#78350f">3 · VPN Infrastructure</text><rect x="420" y="478" width="50" height="18" rx="9" fill="#f59e0b"/><text x="445" y="491" text-anchor="middle" font-size="9" font-weight="700" fill="#ffffff">HIGH</text><text x="282" y="508" font-size="9" fill="#92400e">IPsec · SHA-1 HMAC · Wave 2 · 6 deps</text>
  <rect x="268" y="524" width="480" height="44" rx="8" fill="#fffbeb" stroke="#fcd34d"/><text x="282" y="542" font-weight="700" fill="#78350f">4 · Customer PKI</text><rect x="420" y="530" width="50" height="18" rx="9" fill="#f59e0b"/><text x="445" y="543" text-anchor="middle" font-size="9" font-weight="700" fill="#ffffff">HIGH</text><text x="282" y="560" font-size="9" fill="#92400e">RSA-3072 CA · Wave 2 · 22 deps</text>
  <rect x="268" y="576" width="480" height="44" rx="8" fill="#fffbeb" stroke="#fcd34d"/><text x="282" y="594" font-weight="700" fill="#78350f">5 · API Gateway</text><rect x="420" y="582" width="50" height="18" rx="9" fill="#f59e0b"/><text x="445" y="595" text-anchor="middle" font-size="9" font-weight="700" fill="#ffffff">HIGH</text><text x="282" y="612" font-size="9" fill="#92400e">ECDH-P256 · mTLS · Wave 2 · 18 deps</text>
</g>
<rect x="268" y="632" width="480" height="26" rx="7" fill="#f0fdfa"/><text x="280" y="649" font-size="10" fill="#0a675f">Why #1 first?  →  Removes RSA-2048 exposure from 73 dependent assets · lowest dependency risk · NIST IR 8547 P-17 · 2-day path</text>

<!-- Right column: readiness by environment + actions -->
<rect x="792" y="306" width="400" height="170" rx="14" fill="#ffffff" stroke="#e2e8f0"/>
<text x="812" y="334" font-size="14" font-weight="800" fill="#0f172a">Readiness by environment</text>
<g font-size="11">
  <text x="812" y="366" fill="#334155">Production</text><rect x="920" y="352" width="180" height="14" rx="7" fill="#e2e8f0"/><rect x="920" y="352" width="86" height="14" rx="7" fill="#0a675f"/><text x="1108" y="364" text-anchor="end" fill="#0f172a" font-weight="600">48%</text>
  <text x="812" y="398" fill="#334155">Staging</text><rect x="920" y="384" width="180" height="14" rx="7" fill="#e2e8f0"/><rect x="920" y="384" width="108" height="14" rx="7" fill="#0a675f"/><text x="1108" y="396" text-anchor="end" fill="#0f172a" font-weight="600">60%</text>
  <text x="812" y="430" fill="#334155">Development</text><rect x="920" y="416" width="180" height="14" rx="7" fill="#e2e8f0"/><rect x="920" y="416" width="126" height="14" rx="7" fill="#16a34a"/><text x="1108" y="428" text-anchor="end" fill="#0f172a" font-weight="600">70%</text>
  <text x="812" y="462" fill="#334155">Cloud (AWS/Azure)</text><rect x="920" y="448" width="180" height="14" rx="7" fill="#e2e8f0"/><rect x="920" y="448" width="56" height="14" rx="7" fill="#dc2626"/><text x="1108" y="460" text-anchor="end" fill="#0f172a" font-weight="600">31%</text>
</g>

<rect x="792" y="496" width="400" height="170" rx="14" fill="#ffffff" stroke="#e2e8f0"/>
<text x="812" y="524" font-size="14" font-weight="800" fill="#0f172a">Recommended actions</text>
<g font-size="11">
  <circle cx="824" cy="550" r="4" fill="#dc2626"/><text x="836" y="554" fill="#334155">Rotate Payment Gateway cert to ML-KEM-768 hybrid</text>
  <circle cx="824" cy="580" r="4" fill="#dc2626"/><text x="836" y="584" fill="#334155">Remove SHA-1 from VPN IPsec (6 tunnels)</text>
  <circle cx="824" cy="610" r="4" fill="#f59e0b"/><text x="836" y="614" fill="#334155">Schedule CA re-issue — ECDSA-P384 → ML-DSA-65</text>
  <circle cx="824" cy="640" r="4" fill="#f59e0b"/><text x="836" y="644" fill="#334155">4 vendor libs missing PQC support (see report)</text>
</g>
<rect x="812" y="664" width="360" height="0" fill="none"/>
<rect x="812" y="658" width="360" height="0" fill="none"/>
</svg>
